HIERARCHY
ROOT Hips
{
 OFFSET 0.000000 0.000000 0.000000
 CHANNELS 6 Xposition Yposition Zposition Yrotation Xrotation Zrotation
 JOINT Chest
 {
  OFFSET 0.000000 9.857222 0.000240
  CHANNELS 3 Yrotation Xrotation Zrotation
  JOINT Chest2
  {
   OFFSET 0.000000 10.876940 -0.000436
   CHANNELS 3 Yrotation Xrotation Zrotation
   JOINT Chest3
   {
    OFFSET 0.000000 9.827798 0.000000
    CHANNELS 3 Yrotation Xrotation Zrotation
    JOINT Chest4
    {
     OFFSET 0.000000 9.827798 0.000000
     CHANNELS 3 Yrotation Xrotation Zrotation
     JOINT Neck
     {
      OFFSET 0.000000 13.831992 0.000000
      CHANNELS 3 Yrotation Xrotation Zrotation
      JOINT Head
      {
       OFFSET 0.000000 9.147643 -0.001036
       CHANNELS 3 Yrotation Xrotation Zrotation
       End Site
       {
        OFFSET 0.000000 17.515799 -0.000541
       }
      }
     }
     JOINT RightCollar
     {
      OFFSET -3.001579 7.717577 0.000000
      CHANNELS 3 Yrotation Xrotation Zrotation
      JOINT RightShoulder
      {
       OFFSET -14.002642 0.000000 0.000000
       CHANNELS 3 Yrotation Xrotation Zrotation
       JOINT RightElbow
       {
        OFFSET -30.053852 0.000000 0.000000
        CHANNELS 3 Yrotation Xrotation Zrotation
        JOINT RightWrist
        {
         OFFSET -24.564923 0.000000 -0.000000
         CHANNELS 3 Yrotation Xrotation Zrotation
         End Site
         {
          OFFSET -18.334355 0.000000 0.000000
         }
        }
       }
      }
     }
     JOINT LeftCollar
     {
      OFFSET 3.001579 7.717577 0.000000
      CHANNELS 3 Yrotation Xrotation Zrotation
      JOINT LeftShoulder
      {
       OFFSET 14.002642 0.000000 0.000000
       CHANNELS 3 Yrotation Xrotation Zrotation
       JOINT LeftElbow
       {
        OFFSET 30.053852 0.000000 0.000000
        CHANNELS 3 Yrotation Xrotation Zrotation
        JOINT LeftWrist
        {
         OFFSET 24.564923 0.000000 -0.000000
         CHANNELS 3 Yrotation Xrotation Zrotation
         End Site
         {
          OFFSET 18.334355 0.000000 0.000000
         }
        }
       }
      }
     }
    }
   }
  }
 }
 JOINT RightHip
 {
  OFFSET -8.003235 -0.001175 -0.000120
  CHANNELS 3 Yrotation Xrotation Zrotation
  JOINT RightKnee
  {
   OFFSET 0.000000 -41.759727 0.000113
   CHANNELS 3 Yrotation Xrotation Zrotation
   JOINT RightAnkle
   {
    OFFSET 0.000000 -40.728748 0.000159
    CHANNELS 3 Yrotation Xrotation Zrotation
    JOINT RightToe
    {
     OFFSET 0.000000 -6.515296 14.732841
     CHANNELS 3 Yrotation Xrotation Zrotation
     End Site
     {
      OFFSET 0.000000 -1.502839 6.412115
     }
    }
   }
  }
 }
 JOINT LeftHip
 {
  OFFSET 8.003235 -0.001175 -0.000120
  CHANNELS 3 Yrotation Xrotation Zrotation
  JOINT LeftKnee
  {
   OFFSET 0.000000 -41.759727 0.000113
   CHANNELS 3 Yrotation Xrotation Zrotation
   JOINT LeftAnkle
   {
    OFFSET 0.000000 -40.728748 0.000159
    CHANNELS 3 Yrotation Xrotation Zrotation
    JOINT LeftToe
    {
     OFFSET 0.000000 -6.515296 14.732841
     CHANNELS 3 Yrotation Xrotation Zrotation
     End Site
     {
      OFFSET 0.000000 -1.502839 6.412115
     }
    }
   }
  }
 }
}
MOTION
Frames: 15
Frame Time: 0.016667
0.000000 88.822259 0.000000 0.000000 -5.826342 0.000000 0.000000 11.116423 0.000000 0.000000 -5.290081 0.000000 0.000000 0.000000 0.000000 0.000000 0.000000 0.000000 0.000000 12.665069 0.000000 0.000000 0.575450 0.000000 0.000000 0.000000 0.000000 0.000000 0.000000 0.000000 2.337306 0.000000 0.000000 -2.337306 0.000000 0.000000 0.000000 0.000000 0.000000 0.000000 0.000000 0.000000 -2.337306 0.000000 0.000000 2.337306 0.000000 0.000000 0.000000 8.578828 0.000000 0.000000 1.905768 0.000000 0.000000 -4.658254 0.000000 0.000000 0.000000 0.000000 0.000000 8.578828 0.000000 0.000000 1.905768 0.000000 0.000000 -4.658254 0.000000 0.000000 0.000000 0.000000
6.627977 90.244356 20.525728 -28.300680 -2.456040 0.044470 1.641951 -5.640380 -0.385732 1.360957 -1.849125 -0.270998 1.360957 -1.849125 -0.270998 1.019809 -1.387455 -0.199113 2.759390 24.143581 -0.647341 5.115252 8.720201 -1.855647 5.925439 23.259013 14.516842 46.024521 -3.443835 75.034795 14.622360 32.463624 14.481055 1.430570 -4.143792 -7.171692 -22.553640 29.240927 -20.240664 -44.646429 18.214981 -68.941399 -34.975995 -11.104866 1.311571 7.654699 7.165901 13.666175 -10.595912 3.825666 -1.617279 7.998457 5.042710 -0.012466 0.326351 -6.494619 1.014727 -0.199774 0.110637 -0.131118 -35.120892 13.538167 -1.619424 33.378510 -0.929091 -8.424750 9.242565 -7.838146 0.563209 1.370714 -0.071278 0.575863
6.620514 90.248888 20.511169 -28.193498 -2.544604 0.072348 1.621537 -5.644126 -0.448970 1.359433 -1.841067 -0.293444 1.359433 -1.841067 -0.293444 1.018603 -1.381462 -0.215969 2.776628 24.150075 -0.624718 5.140349 8.731845 -1.819130 5.865360 23.244619 14.401977 47.817830 -3.119869 74.008692 15.778848 32.860976 15.771091 1.748587 -4.131313 -7.072212 -22.655347 29.334895 -20.175777 -44.433100 18.580741 -67.625190 -36.597061 -11.080442 1.748032 7.680027 6.881931 13.810274 -10.568851 3.916927 -1.647969 7.913401 5.036127 -0.013027 0.296549 -6.482655 1.021891 -0.198213 0.112325 -0.133448 -35.179278 13.575625 -1.677280 33.397739 -0.917394 -8.405694 9.170285 -7.798366 0.561477 1.366666 -0.074386 0.572715
6.622008 90.251806 20.488587 -28.108374 -2.619909 0.104587 1.610251 -5.637535 -0.511194 1.358123 -1.832863 -0.314249 1.358123 -1.832863 -0.314249 1.017563 -1.375354 -0.231594 2.795537 24.153307 -0.602914 5.168727 8.737536 -1.784626 5.800863 23.283726 14.266737 49.567482 -2.699230 72.986501 17.188640 32.650065 16.426858 1.874418 -4.280684 -6.825133 -22.654561 29.353177 -20.001718 -43.917461 18.903079 -66.438692 -38.740902 -12.087741 3.056567 7.806690 6.943528 13.879724 -10.518658 3.989761 -1.693531 7.810019 5.034287 -0.005446 0.285893 -6.483491 1.034291 -0.194729 0.124075 -0.135319 -35.185347 13.591330 -1.715949 33.425571 -0.905437 -8.392055 9.116719 -7.756389 0.562602 1.352265 -0.064001 0.566044
6.627134 90.255454 20.455786 -28.045834 -2.682292 0.133780 1.593680 -5.643144 -0.559820 1.360928 -1.824610 -0.333428 1.360928 -1.824610 -0.333428 1.019614 -1.369209 -0.245987 2.818247 24.168887 -0.578629 5.203019 8.766165 -1.746139 5.728731 23.354949 14.117097 51.249246 -2.188277 71.935531 18.720700 31.389582 16.458960 1.815325 -4.358404 -6.857912 -22.580266 29.347715 -19.791897 -43.558694 19.494675 -65.247185 -41.500536 -13.543824 4.843917 8.051734 7.059813 14.117458 -10.459328 4.031023 -1.727736 7.718784 5.043026 0.009178 0.278094 -6.477490 1.035223 -0.192542 0.137610 -0.135763 -35.140162 13.590951 -1.742137 33.363750 -0.892071 -8.361852 9.157464 -7.719196 0.539235 1.355502 -0.055420 0.570823
6.634542 90.261558 20.429286 -28.036607 -2.780247 0.171319 1.618611 -5.615812 -0.609096 1.366087 -1.820046 -0.351565 1.366087 -1.820046 -0.351565 1.023432 -1.365829 -0.259584 2.842001 24.204396 -0.546636 5.236802 8.831455 -1.693298 5.628620 23.444158 13.946969 52.462554 -1.720399 70.636503 20.612206 29.256875 16.155924 1.638856 -4.341643 -7.226541 -22.466712 29.345742 -19.557329 -42.887666 19.912789 -63.913567 -44.466427 -14.285288 6.601447 8.352698 7.164102 14.461540 -10.361611 4.104029 -1.778436 7.649505 5.055913 0.021263 0.254880 -6.469752 1.041254 -0.187183 0.146125 -0.133547 -35.031726 13.619817 -1.790621 33.220399 -0.879246 -8.315240 9.131472 -7.678833 0.530329 1.326308 -0.057722 0.561217
6.633408 90.268550 20.402482 -28.053393 -2.851142 0.195790 1.654225 -5.596491 -0.629458 1.372414 -1.823480 -0.362142 1.372414 -1.823480 -0.362142 1.028143 -1.368432 -0.267489 2.862721 24.263129 -0.520237 5.266044 8.939993 -1.648808 5.504137 23.446952 13.728981 53.081653 -1.289358 69.202226 22.923644 26.326084 15.574814 1.407307 -4.262564 -7.836542 -22.293559 29.315001 -19.310767 -42.040842 20.175315 -62.564664 -47.521798 -14.287647 8.319189 8.610636 7.228924 14.827833 -10.255871 4.152988 -1.806231 7.612206 5.064984 0.034945 0.231584 -6.449650 1.043749 -0.183032 0.145852 -0.134092 -34.934769 13.635240 -1.836832 33.092035 -0.877700 -8.259316 9.175911 -7.646694 0.507063 1.314414 -0.057785 0.561063
6.629211 90.274221 20.377311 -28.094123 -2.891811 0.211337 1.695861 -5.596292 -0.642746 1.379609 -1.837233 -0.367512 1.379609 -1.837233 -0.367512 1.033514 -1.378763 -0.271463 2.889828 24.347406 -0.485525 5.304142 9.095779 -1.589979 5.405234 23.500044 13.516434 53.265195 -0.989405 67.731466 25.569321 22.731438 14.825497 1.095383 -4.110988 -8.703316 -22.046155 29.329281 -19.035275 -41.244001 20.304185 -61.248037 -50.729512 -14.014282 10.042095 8.850471 7.259709 15.184825 -10.172457 4.182029 -1.820788 7.611908 5.057226 0.043926 0.218270 -6.424210 1.049965 -0.179512 0.147629 -0.136042 -34.776469 13.654448 -1.848532 32.982395 -0.894460 -8.215039 9.202709 -7.611555 0.486099 1.291393 -0.054866 0.553398
6.624601 90.278272 20.344138 -28.110191 -2.880904 0.223798 1.707890 -5.641719 -0.666641 1.387437 -1.855190 -0.373213 1.387437 -1.855190 -0.373213 1.039354 -1.392249 -0.275674 2.923312 24.451927 -0.428610 5.347806 9.288318 -1.492109 5.235129 23.514133 13.278057 53.129878 -0.725477 66.219602 28.674888 18.841211 13.990273 0.718491 -4.006605 -9.605686 -21.822604 29.332640 -18.776659 -40.395407 20.262039 -59.950604 -53.989143 -13.643969 11.732058 9.017266 7.275501 15.476864 -10.164852 4.159090 -1.828227 7.652064 5.044087 0.058454 0.215009 -6.399051 1.052629 -0.176930 0.154963 -0.139561 -34.705673 13.631350 -1.831253 32.974918 -0.908399 -8.191998 9.161827 -7.576486 0.477642 1.273897 -0.045916 0.547543
6.621381 90.283635 20.307925 -28.103428 -2.877966 0.238576 1.708359 -5.698583 -0.701818 1.399088 -1.867603 -0.380599 1.399088 -1.867603 -0.380599 1.048060 -1.401583 -0.281149 2.954605 24.577412 -0.352552 5.382534 9.518781 -1.358564 5.027069 23.477453 13.036722 52.454640 -0.679736 64.640837 32.115952 15.173814 13.266336 0.358148 -3.945309 -10.452205 -21.670747 29.348403 -18.522913 -39.896665 20.353315 -58.742992 -57.472637 -13.601180 13.726614 9.117689 7.258127 15.701922 -10.236390 4.150041 -1.842175 7.713999 5.015342 0.066112 0.228312 -6.365382 1.059836 -0.174764 0.161861 -0.143937 -34.691695 13.606861 -1.821152 32.999603 -0.917501 -8.175591 9.125513 -7.532228 0.471093 1.253058 -0.044113 0.541317
6.616496 90.290658 20.280134 -28.108525 -2.879837 0.249970 1.711825 -5.753724 -0.728242 1.405183 -1.887531 -0.385365 1.405183 -1.887531 -0.385365 1.052602 -1.416544 -0.284658 2.994254 24.730119 -0.273516 5.431215 9.799924 -1.220655 4.791419 23.439780 12.748839 51.537722 -0.920718 63.151541 35.598710 11.899152 12.663258 0.028493 -3.849208 -11.324386 -21.536666 29.391019 -18.308981 -39.648733 20.511310 -57.672358 -61.233494 -13.756002 15.965263 9.176897 7.242661 15.954371 -10.364118 4.151302 -1.866005 7.812194 4.977038 0.082780 0.255083 -6.321458 1.066431 -0.172992 0.160741 -0.148925 -34.651995 13.589090 -1.813480 32.974277 -0.924081 -8.153109 9.117435 -7.491155 0.464508 1.224347 -0.051334 0.532868
6.605274 90.295154 20.251678 -28.137755 -2.900867 0.249964 1.722151 -5.801187 -0.739938 1.404348 -1.913645 -0.389148 1.404348 -1.913645 -0.389148 1.051944 -1.436138 -0.287437 3.045957 24.910380 -0.194935 5.501378 10.132631 -1.085353 4.539414 23.441324 12.425186 50.729539 -1.315373 61.775055 39.030413 9.119755 12.214694 -0.262206 -3.697547 -12.320612 -21.423467 29.527106 -18.142659 -39.485986 20.629231 -56.745087 -65.233344 -13.677412 18.505241 9.165775 7.196179 16.160019 -10.494170 4.179905 -1.890660 7.916849 4.942896 0.100901 0.285520 -6.289693 1.076534 -0.169939 0.159746 -0.151186 -34.605954 13.593585 -1.809043 32.927894 -0.923312 -8.129006 9.180727 -7.474621 0.442579 1.206285 -0.047760 0.529837
6.600935 90.298811 20.228880 -28.148123 -2.938339 0.251139 1.691943 -5.863845 -0.753871 1.400138 -1.930659 -0.391201 1.400138 -1.930659 -0.391201 1.048769 -1.448900 -0.288950 3.105610 25.110522 -0.124473 5.587699 10.502847 -0.965594 4.362342 23.357356 12.139923 49.949004 -1.607934 60.503896 42.521372 7.056828 11.762243 -0.564752 -3.452849 -13.185130 -21.363849 29.637583 -17.998537 -39.261381 20.744910 -55.918298 -69.354543 -13.325985 21.213012 9.112042 7.129307 16.305820 -10.600299 4.204186 -1.901027 7.980748 4.927039 0.117253 0.309294 -6.261546 1.073369 -0.171386 0.167019 -0.151136 -34.695940 13.604801 -1.838822 32.956985 -0.922445 -8.119031 9.316496 -7.458843 0.421540 1.194163 -0.048937 0.530926
6.595017 90.303785 20.210045 -28.199622 -2.999002 0.250605 1.696330 -5.893294 -0.768634 1.397217 -1.947171 -0.395119 1.397217 -1.947171 -0.395119 1.046553 -1.461291 -0.291859 3.164767 25.317202 -0.059675 5.674686 10.885404 -0.855432 4.263833 23.259520 11.914778 49.037498 -1.959824 59.412536 46.088339 6.044293 10.988622 -0.893827 -3.253529 -13.536932 -21.265219 29.750863 -17.786126 -39.309138 20.988446 -55.244880 -73.577087 -12.934862 24.238195 9.094453 7.134635 16.403316 -10.618873 4.257998 -1.920366 8.024687 4.919778 0.132920 0.310272 -6.236881 1.080312 -0.169836 0.162267 -0.148190 -34.749697 13.646479 -1.879613 32.976876 -0.922216 -8.114687 9.431910 -7.446999 0.408033 1.170335 -0.056201 0.526607
6.596131 90.307507 20.190930 -28.223596 -3.016307 0.252901 1.691206 -5.952245 -0.795915 1.397764 -1.969241 -0.404585 1.397764 -1.969241 -0.404585 1.046917 -1.477866 -0.298905 3.216398 25.529137 0.008234 5.747712 11.277286 -0.737581 4.261888 23.249305 11.795292 48.133603 -2.265629 58.409431 49.714586 5.359842 10.096552 -1.240566 -2.949492 -13.905830 -21.240309 29.899969 -17.607290 -39.420473 21.239638 -54.667815 -77.702687 -12.418892 27.232016 9.175615 7.202946 16.567107 -10.609900 4.259012 -1.919421 8.033537 4.924202 0.135166 0.303654 -6.219302 1.086311 -0.168443 0.164259 -0.142585 -34.834045 13.645717 -1.890700 33.020336 -0.912220 -8.120338 9.460877 -7.436996 0.402961 1.157666 -0.062177 0.526237
